# xmcd
#
# Track frame offsets:
#	150
#	17185
#	35583
#	53233
#	76450
#	92473
#	123570
#	148613
#
# Disc length: 2382 seconds
#
# Revision: 0
# Processed by: cddbd v1.5.2PL0 Copyright (c) Steve Scherf et al.
# Submitted via: audiograbber 1.83.01
#
DISCID=66094c08
DTITLE=Womack, Bobby - The poet
DYEAR=1981
DGENRE=Soul
TTITLE0=So many sides of you 
TTITLE1=Lay your lovin' on me
TTITLE2=Secrets
TTITLE3=Just my imagination
TTITLE4=Stand up
TTITLE5=Games
TTITLE6=If you think you're lonely
TTITLE7=Where do we go from here
EXTD=
EXTT0=
EXTT1=
EXTT2=
EXTT3=
EXTT4=
EXTT5=
EXTT6=
EXTT7=
PLAYORDER=
